<mxfile host="app.diagrams.net" modified="2023-12-13T04:34:42.525Z" agent="Mozilla/5.0 (Windows NT 10.0; Win64; x64) AppleWebKit/537.36 (KHTML, like Gecko) Chrome/120.0.0.0 Safari/537.36 Edg/120.0.0.0" etag="UE_IO-ytIEIhx0dtWnX1" version="22.1.8" type="github">
  <diagram name="第 1 页" id="4Cc8ApVUQzIg-s06SaWm">
    <mxGraphModel dx="1294" dy="1279" grid="1" gridSize="10" guides="1" tooltips="1" connect="1" arrows="1" fold="1" page="1" pageScale="1" pageWidth="827" pageHeight="1169" math="0" shadow="0">
      <root>
        <mxCell id="0" />
        <mxCell id="1" parent="0" />
        <mxCell id="jNKj6Zw7hZ9GfnlodJ36-14" style="edgeStyle=orthogonalEdgeStyle;rounded=0;orthogonalLoop=1;jettySize=auto;html=1;exitX=1;exitY=0.25;exitDx=0;exitDy=0;entryX=0;entryY=0.5;entryDx=0;entryDy=0;" edge="1" parent="1" source="jNKj6Zw7hZ9GfnlodJ36-2" target="jNKj6Zw7hZ9GfnlodJ36-3">
          <mxGeometry relative="1" as="geometry" />
        </mxCell>
        <mxCell id="jNKj6Zw7hZ9GfnlodJ36-2" value="&lt;font face=&quot;宋体&quot; style=&quot;font-size: 16px;&quot;&gt;&lt;b&gt;训练循环&lt;br&gt;&lt;/b&gt;&lt;/font&gt;&lt;ol style=&quot;font-size: 16px; line-height: 140%;&quot;&gt;&lt;li style=&quot;&quot;&gt;&lt;font face=&quot;Tmhbn3gges5IK-CYF1_4&quot; style=&quot;font-size: 16px;&quot;&gt;&lt;b&gt;选择随机或经验测试点&lt;/b&gt;&lt;/font&gt;&lt;/li&gt;&lt;li style=&quot;&quot;&gt;&lt;font face=&quot;Tmhbn3gges5IK-CYF1_4&quot; style=&quot;font-size: 16px;&quot;&gt;&lt;b&gt;测试点诊断&lt;/b&gt;&lt;/font&gt;&lt;/li&gt;&lt;li style=&quot;&quot;&gt;&lt;font face=&quot;Tmhbn3gges5IK-CYF1_4&quot; style=&quot;font-size: 16px;&quot;&gt;&lt;b&gt;更新经研究&lt;/b&gt;&lt;/font&gt;&lt;/li&gt;&lt;li style=&quot;&quot;&gt;&lt;font face=&quot;Tmhbn3gges5IK-CYF1_4&quot; style=&quot;font-size: 16px;&quot;&gt;&lt;b&gt;优化&lt;/b&gt;&lt;/font&gt;&lt;/li&gt;&lt;li style=&quot;&quot;&gt;&lt;font face=&quot;Tmhbn3gges5IK-CYF1_4&quot; style=&quot;font-size: 16px;&quot;&gt;&lt;b&gt;更新目标网络&lt;/b&gt;&lt;/font&gt;&lt;/li&gt;&lt;/ol&gt;" style="rounded=0;whiteSpace=wrap;html=1;fillColor=none;align=left;" vertex="1" parent="1">
          <mxGeometry x="40" y="240" width="240" height="180" as="geometry" />
        </mxCell>
        <mxCell id="jNKj6Zw7hZ9GfnlodJ36-3" value="&lt;font style=&quot;font-size: 16px;&quot; face=&quot;宋体&quot;&gt;&lt;b&gt;经验回放&lt;/b&gt;&lt;/font&gt;" style="rounded=0;whiteSpace=wrap;html=1;fillColor=#f5f5f5;gradientColor=#b3b3b3;strokeColor=#666666;" vertex="1" parent="1">
          <mxGeometry x="400" y="200" width="120" height="60" as="geometry" />
        </mxCell>
        <mxCell id="jNKj6Zw7hZ9GfnlodJ36-12" style="edgeStyle=orthogonalEdgeStyle;rounded=0;orthogonalLoop=1;jettySize=auto;html=1;exitX=0;exitY=0.75;exitDx=0;exitDy=0;entryX=0.5;entryY=0;entryDx=0;entryDy=0;" edge="1" parent="1" source="jNKj6Zw7hZ9GfnlodJ36-4" target="jNKj6Zw7hZ9GfnlodJ36-11">
          <mxGeometry relative="1" as="geometry" />
        </mxCell>
        <mxCell id="jNKj6Zw7hZ9GfnlodJ36-16" style="edgeStyle=orthogonalEdgeStyle;rounded=0;orthogonalLoop=1;jettySize=auto;html=1;entryX=0;entryY=0.5;entryDx=0;entryDy=0;exitX=0.5;exitY=0;exitDx=0;exitDy=0;" edge="1" parent="1" source="jNKj6Zw7hZ9GfnlodJ36-4" target="jNKj6Zw7hZ9GfnlodJ36-15">
          <mxGeometry relative="1" as="geometry" />
        </mxCell>
        <mxCell id="jNKj6Zw7hZ9GfnlodJ36-20" style="edgeStyle=orthogonalEdgeStyle;rounded=0;orthogonalLoop=1;jettySize=auto;html=1;exitX=1;exitY=0.5;exitDx=0;exitDy=0;entryX=0;entryY=1;entryDx=0;entryDy=0;" edge="1" parent="1" source="jNKj6Zw7hZ9GfnlodJ36-4" target="jNKj6Zw7hZ9GfnlodJ36-15">
          <mxGeometry relative="1" as="geometry" />
        </mxCell>
        <mxCell id="jNKj6Zw7hZ9GfnlodJ36-4" value="&lt;font face=&quot;宋体&quot; style=&quot;font-size: 16px;&quot;&gt;&lt;b&gt;策略网络&lt;/b&gt;&lt;/font&gt;" style="rounded=0;whiteSpace=wrap;html=1;fillColor=#dae8fc;gradientColor=#7ea6e0;strokeColor=#6c8ebf;" vertex="1" parent="1">
          <mxGeometry x="414" y="400" width="120" height="60" as="geometry" />
        </mxCell>
        <mxCell id="jNKj6Zw7hZ9GfnlodJ36-22" style="edgeStyle=orthogonalEdgeStyle;rounded=0;orthogonalLoop=1;jettySize=auto;html=1;exitX=1;exitY=0.5;exitDx=0;exitDy=0;entryX=0.5;entryY=1;entryDx=0;entryDy=0;" edge="1" parent="1" source="jNKj6Zw7hZ9GfnlodJ36-5" target="jNKj6Zw7hZ9GfnlodJ36-15">
          <mxGeometry relative="1" as="geometry" />
        </mxCell>
        <mxCell id="jNKj6Zw7hZ9GfnlodJ36-5" value="&lt;font face=&quot;宋体&quot; style=&quot;font-size: 16px;&quot;&gt;&lt;b&gt;目标网络&lt;/b&gt;&lt;/font&gt;" style="rounded=0;whiteSpace=wrap;html=1;fillColor=#dae8fc;gradientColor=#7ea6e0;strokeColor=#6c8ebf;" vertex="1" parent="1">
          <mxGeometry x="414" y="490" width="120" height="60" as="geometry" />
        </mxCell>
        <mxCell id="jNKj6Zw7hZ9GfnlodJ36-8" value="" style="endArrow=classic;html=1;rounded=0;edgeStyle=orthogonalEdgeStyle;exitX=1;exitY=0.5;exitDx=0;exitDy=0;entryX=0;entryY=0.25;entryDx=0;entryDy=0;" edge="1" parent="1" source="jNKj6Zw7hZ9GfnlodJ36-2" target="jNKj6Zw7hZ9GfnlodJ36-4">
          <mxGeometry relative="1" as="geometry">
            <mxPoint x="360" y="550" as="sourcePoint" />
            <mxPoint x="410" y="400" as="targetPoint" />
          </mxGeometry>
        </mxCell>
        <mxCell id="jNKj6Zw7hZ9GfnlodJ36-9" value="&lt;font style=&quot;font-size: 14px;&quot;&gt;测试点选择&lt;/font&gt;" style="edgeLabel;resizable=0;html=1;align=center;verticalAlign=middle;" connectable="0" vertex="1" parent="jNKj6Zw7hZ9GfnlodJ36-8">
          <mxGeometry relative="1" as="geometry" />
        </mxCell>
        <mxCell id="jNKj6Zw7hZ9GfnlodJ36-13" style="edgeStyle=orthogonalEdgeStyle;rounded=0;orthogonalLoop=1;jettySize=auto;html=1;exitX=0.5;exitY=1;exitDx=0;exitDy=0;" edge="1" parent="1" source="jNKj6Zw7hZ9GfnlodJ36-11" target="jNKj6Zw7hZ9GfnlodJ36-5">
          <mxGeometry relative="1" as="geometry" />
        </mxCell>
        <mxCell id="jNKj6Zw7hZ9GfnlodJ36-11" value="&lt;font style=&quot;font-size: 16px;&quot; face=&quot;宋体&quot;&gt;&lt;b&gt;更新&lt;/b&gt;&lt;/font&gt;" style="ellipse;whiteSpace=wrap;html=1;fillColor=#fff2cc;gradientColor=#ffd966;strokeColor=#d6b656;" vertex="1" parent="1">
          <mxGeometry x="210" y="480" width="120" height="80" as="geometry" />
        </mxCell>
        <mxCell id="jNKj6Zw7hZ9GfnlodJ36-15" value="&lt;font style=&quot;font-size: 16px;&quot; face=&quot;宋体&quot;&gt;&lt;b&gt;优化&lt;/b&gt;&lt;/font&gt;" style="ellipse;whiteSpace=wrap;html=1;fillColor=#d5e8d4;gradientColor=#97d077;strokeColor=#82b366;" vertex="1" parent="1">
          <mxGeometry x="590" y="280" width="120" height="80" as="geometry" />
        </mxCell>
        <mxCell id="jNKj6Zw7hZ9GfnlodJ36-18" value="" style="endArrow=classic;html=1;rounded=0;edgeStyle=orthogonalEdgeStyle;exitX=1;exitY=0.5;exitDx=0;exitDy=0;entryX=0.5;entryY=0;entryDx=0;entryDy=0;" edge="1" parent="1" source="jNKj6Zw7hZ9GfnlodJ36-3" target="jNKj6Zw7hZ9GfnlodJ36-15">
          <mxGeometry relative="1" as="geometry">
            <mxPoint x="360" y="550" as="sourcePoint" />
            <mxPoint x="460" y="550" as="targetPoint" />
          </mxGeometry>
        </mxCell>
        <mxCell id="jNKj6Zw7hZ9GfnlodJ36-19" value="&lt;font style=&quot;font-size: 15px;&quot;&gt;随机批次经验采样&lt;/font&gt;" style="edgeLabel;resizable=0;html=1;align=center;verticalAlign=middle;" connectable="0" vertex="1" parent="jNKj6Zw7hZ9GfnlodJ36-18">
          <mxGeometry relative="1" as="geometry" />
        </mxCell>
      </root>
    </mxGraphModel>
  </diagram>
</mxfile>
